<svg width="38" height="14" viewBox="0 0 38 14" fill="none" xmlns="http://www.w3.org/2000/svg">
<path d="M0 14H38V-9.53674e-07H5.08601e-05L5.79102 7L0 14Z" fill="#333467"/>
<path d="M13.4453 6V1.70508H14.2891L16.0469 4.57324V1.70508H16.8525V6H15.9824L14.251 3.19922V6H13.4453ZM17.7666 2.4668V1.70508H18.5898V2.4668H17.7666ZM17.7666 6V2.88867H18.5898V6H17.7666ZM21.2383 5.00977L22.0586 5.14746C21.9531 5.44824 21.7861 5.67773 21.5576 5.83594C21.3311 5.99219 21.0469 6.07031 20.7051 6.07031C20.1641 6.07031 19.7637 5.89355 19.5039 5.54004C19.2988 5.25684 19.1963 4.89941 19.1963 4.46777C19.1963 3.95215 19.3311 3.54883 19.6006 3.25781C19.8701 2.96484 20.2109 2.81836 20.623 2.81836C21.0859 2.81836 21.4512 2.97168 21.7188 3.27832C21.9863 3.58301 22.1143 4.05078 22.1025 4.68164H20.04C20.0459 4.92578 20.1123 5.11621 20.2393 5.25293C20.3662 5.3877 20.5244 5.45508 20.7139 5.45508C20.8428 5.45508 20.9512 5.41992 21.0391 5.34961C21.127 5.2793 21.1934 5.16602 21.2383 5.00977ZM21.2852 4.17773C21.2793 3.93945 21.2178 3.75879 21.1006 3.63574C20.9834 3.51074 20.8408 3.44824 20.6729 3.44824C20.4932 3.44824 20.3447 3.51367 20.2275 3.64453C20.1104 3.77539 20.0527 3.95312 20.0547 4.17773H21.2852ZM24.8242 6V5.53418C24.7109 5.7002 24.5615 5.83105 24.376 5.92676C24.1924 6.02246 23.998 6.07031 23.793 6.07031C23.584 6.07031 23.3965 6.02441 23.2305 5.93262C23.0645 5.84082 22.9443 5.71191 22.8701 5.5459C22.7959 5.37988 22.7588 5.15039 22.7588 4.85742V2.88867H23.582V4.31836C23.582 4.75586 23.5967 5.02441 23.626 5.12402C23.6572 5.22168 23.7129 5.2998 23.793 5.3584C23.873 5.41504 23.9746 5.44336 24.0977 5.44336C24.2383 5.44336 24.3643 5.40527 24.4756 5.3291C24.5869 5.25098 24.6631 5.15527 24.7041 5.04199C24.7451 4.92676 24.7656 4.64648 24.7656 4.20117V2.88867H25.5889V6H24.8242ZM27.0244 6L26.04 2.88867H26.8398L27.4229 4.92773L27.959 2.88867H28.7529L29.2715 4.92773L29.8662 2.88867H30.6777L29.6787 6H28.8877L28.3516 3.99902L27.8242 6H27.0244Z" fill="white"/>
<path d="M14.0107 12L13.0264 8.88867H13.8262L14.4092 10.9277L14.9453 8.88867H15.7393L16.2578 10.9277L16.8525 8.88867H17.6641L16.665 12H15.874L15.3379 9.99902L14.8105 12H14.0107ZM19.9023 11.0098L20.7227 11.1475C20.6172 11.4482 20.4502 11.6777 20.2217 11.8359C19.9951 11.9922 19.7109 12.0703 19.3691 12.0703C18.8281 12.0703 18.4277 11.8936 18.168 11.54C17.9629 11.2568 17.8604 10.8994 17.8604 10.4678C17.8604 9.95215 17.9951 9.54883 18.2646 9.25781C18.5342 8.96484 18.875 8.81836 19.2871 8.81836C19.75 8.81836 20.1152 8.97168 20.3828 9.27832C20.6504 9.58301 20.7783 10.0508 20.7666 10.6816H18.7041C18.71 10.9258 18.7764 11.1162 18.9033 11.2529C19.0303 11.3877 19.1885 11.4551 19.3779 11.4551C19.5068 11.4551 19.6152 11.4199 19.7031 11.3496C19.791 11.2793 19.8574 11.166 19.9023 11.0098ZM19.9492 10.1777C19.9434 9.93945 19.8818 9.75879 19.7646 9.63574C19.6475 9.51074 19.5049 9.44824 19.3369 9.44824C19.1572 9.44824 19.0088 9.51367 18.8916 9.64453C18.7744 9.77539 18.7168 9.95312 18.7188 10.1777H19.9492ZM21.1504 11.1123L21.9766 10.9863C22.0117 11.1465 22.083 11.2686 22.1904 11.3525C22.2979 11.4346 22.4482 11.4756 22.6416 11.4756C22.8545 11.4756 23.0146 11.4365 23.1221 11.3584C23.1943 11.3037 23.2305 11.2305 23.2305 11.1387C23.2305 11.0762 23.2109 11.0244 23.1719 10.9834C23.1309 10.9443 23.0391 10.9082 22.8965 10.875C22.2324 10.7285 21.8115 10.5947 21.6338 10.4736C21.3877 10.3057 21.2646 10.0723 21.2646 9.77344C21.2646 9.50391 21.3711 9.27734 21.584 9.09375C21.7969 8.91016 22.127 8.81836 22.5742 8.81836C23 8.81836 23.3164 8.8877 23.5234 9.02637C23.7305 9.16504 23.873 9.37012 23.9512 9.6416L23.1748 9.78516C23.1416 9.66406 23.0781 9.57129 22.9844 9.50684C22.8926 9.44238 22.7607 9.41016 22.5889 9.41016C22.3721 9.41016 22.2168 9.44043 22.123 9.50098C22.0605 9.54395 22.0293 9.59961 22.0293 9.66797C22.0293 9.72656 22.0566 9.77637 22.1113 9.81738C22.1855 9.87207 22.4414 9.94922 22.8789 10.0488C23.3184 10.1484 23.625 10.2705 23.7988 10.415C23.9707 10.5615 24.0566 10.7656 24.0566 11.0273C24.0566 11.3125 23.9375 11.5576 23.6992 11.7627C23.4609 11.9678 23.1084 12.0703 22.6416 12.0703C22.2178 12.0703 21.8818 11.9844 21.6338 11.8125C21.3877 11.6406 21.2266 11.4072 21.1504 11.1123ZM26.207 8.88867V9.54492H25.6445V10.7988C25.6445 11.0527 25.6494 11.2012 25.6592 11.2441C25.6709 11.2852 25.6953 11.3193 25.7324 11.3467C25.7715 11.374 25.8184 11.3877 25.873 11.3877C25.9492 11.3877 26.0596 11.3613 26.2041 11.3086L26.2744 11.9473C26.083 12.0293 25.8662 12.0703 25.624 12.0703C25.4756 12.0703 25.3418 12.0459 25.2227 11.9971C25.1035 11.9463 25.0156 11.8818 24.959 11.8037C24.9043 11.7236 24.8662 11.6162 24.8447 11.4814C24.8271 11.3857 24.8184 11.1924 24.8184 10.9014V9.54492H24.4404V8.88867H24.8184V8.27051L25.6445 7.79004V8.88867H26.207Z" fill="white"/>
</svg>
