<svg width="38" height="13" viewBox="0 0 38 13" fill="none" xmlns="http://www.w3.org/2000/svg">
<path d="M0.000108572 13H38V0H0.000159432L5.79111 6.5L0.000108572 13Z" fill="#8EA34B"/>
<path d="M14.2607 5.87891C14.2607 5.44141 14.3262 5.07422 14.457 4.77734C14.5547 4.55859 14.6875 4.3623 14.8555 4.18848C15.0254 4.01465 15.2109 3.88574 15.4121 3.80176C15.6797 3.68848 15.9883 3.63184 16.3379 3.63184C16.9707 3.63184 17.4766 3.82812 17.8555 4.2207C18.2363 4.61328 18.4268 5.15918 18.4268 5.8584C18.4268 6.55176 18.2383 7.09473 17.8613 7.4873C17.4844 7.87793 16.9805 8.07324 16.3496 8.07324C15.7109 8.07324 15.2031 7.87891 14.8262 7.49023C14.4492 7.09961 14.2607 6.5625 14.2607 5.87891ZM15.1543 5.84961C15.1543 6.33594 15.2666 6.70508 15.4912 6.95703C15.7158 7.20703 16.001 7.33203 16.3467 7.33203C16.6924 7.33203 16.9756 7.20801 17.1963 6.95996C17.4189 6.70996 17.5303 6.33594 17.5303 5.83789C17.5303 5.3457 17.4219 4.97852 17.2051 4.73633C16.9902 4.49414 16.7041 4.37305 16.3467 4.37305C15.9893 4.37305 15.7012 4.49609 15.4824 4.74219C15.2637 4.98633 15.1543 5.35547 15.1543 5.84961ZM18.9102 6.40039C18.9102 6.12695 18.9775 5.8623 19.1123 5.60645C19.2471 5.35059 19.4375 5.15527 19.6836 5.02051C19.9316 4.88574 20.208 4.81836 20.5127 4.81836C20.9834 4.81836 21.3691 4.97168 21.6699 5.27832C21.9707 5.58301 22.1211 5.96875 22.1211 6.43555C22.1211 6.90625 21.9688 7.29688 21.6641 7.60742C21.3613 7.91602 20.9795 8.07031 20.5186 8.07031C20.2334 8.07031 19.9609 8.00586 19.7012 7.87695C19.4434 7.74805 19.2471 7.55957 19.1123 7.31152C18.9775 7.06152 18.9102 6.75781 18.9102 6.40039ZM19.7539 6.44434C19.7539 6.75293 19.8271 6.98926 19.9736 7.15332C20.1201 7.31738 20.3008 7.39941 20.5156 7.39941C20.7305 7.39941 20.9102 7.31738 21.0547 7.15332C21.2012 6.98926 21.2744 6.75098 21.2744 6.43848C21.2744 6.13379 21.2012 5.89941 21.0547 5.73535C20.9102 5.57129 20.7305 5.48926 20.5156 5.48926C20.3008 5.48926 20.1201 5.57129 19.9736 5.73535C19.8271 5.89941 19.7539 6.13574 19.7539 6.44434ZM22.4785 7.1123L23.3047 6.98633C23.3398 7.14648 23.4111 7.26855 23.5186 7.35254C23.626 7.43457 23.7764 7.47559 23.9697 7.47559C24.1826 7.47559 24.3428 7.43652 24.4502 7.3584C24.5225 7.30371 24.5586 7.23047 24.5586 7.13867C24.5586 7.07617 24.5391 7.02441 24.5 6.9834C24.459 6.94434 24.3672 6.9082 24.2246 6.875C23.5605 6.72852 23.1396 6.59473 22.9619 6.47363C22.7158 6.30566 22.5928 6.07227 22.5928 5.77344C22.5928 5.50391 22.6992 5.27734 22.9121 5.09375C23.125 4.91016 23.4551 4.81836 23.9023 4.81836C24.3281 4.81836 24.6445 4.8877 24.8516 5.02637C25.0586 5.16504 25.2012 5.37012 25.2793 5.6416L24.5029 5.78516C24.4697 5.66406 24.4062 5.57129 24.3125 5.50684C24.2207 5.44238 24.0889 5.41016 23.917 5.41016C23.7002 5.41016 23.5449 5.44043 23.4512 5.50098C23.3887 5.54395 23.3574 5.59961 23.3574 5.66797C23.3574 5.72656 23.3848 5.77637 23.4395 5.81738C23.5137 5.87207 23.7695 5.94922 24.207 6.04883C24.6465 6.14844 24.9531 6.27051 25.127 6.41504C25.2988 6.56152 25.3848 6.76562 25.3848 7.02734C25.3848 7.3125 25.2656 7.55762 25.0273 7.7627C24.7891 7.96777 24.4365 8.07031 23.9697 8.07031C23.5459 8.07031 23.21 7.98438 22.9619 7.8125C22.7158 7.64062 22.5547 7.40723 22.4785 7.1123ZM27.5352 4.88867V5.54492H26.9727V6.79883C26.9727 7.05273 26.9775 7.20117 26.9873 7.24414C26.999 7.28516 27.0234 7.31934 27.0605 7.34668C27.0996 7.37402 27.1465 7.3877 27.2012 7.3877C27.2773 7.3877 27.3877 7.36133 27.5322 7.30859L27.6025 7.94727C27.4111 8.0293 27.1943 8.07031 26.9521 8.07031C26.8037 8.07031 26.6699 8.0459 26.5508 7.99707C26.4316 7.94629 26.3438 7.88184 26.2871 7.80371C26.2324 7.72363 26.1943 7.61621 26.1729 7.48145C26.1553 7.38574 26.1465 7.19238 26.1465 6.90137V5.54492H25.7686V4.88867H26.1465V4.27051L26.9727 3.79004V4.88867H27.5352Z" fill="white"/>
</svg>
