<svg width="25" height="23" viewBox="0 0 25 23" fill="none" xmlns="http://www.w3.org/2000/svg">
<path d="M1.5 12.546C0.671573 12.546 0 11.8744 0 11.046C0 10.2175 0.671573 9.54596 1.5 9.54596L1.5 11.046L1.5 12.546ZM24.5607 9.9853C25.1464 10.5711 25.1464 11.5208 24.5607 12.1066L15.0147 21.6526C14.4289 22.2383 13.4792 22.2383 12.8934 21.6526C12.3076 21.0668 12.3076 20.117 12.8934 19.5312L21.3787 11.046L12.8934 2.56068C12.3076 1.97489 12.3076 1.02514 12.8934 0.439358C13.4792 -0.146429 14.4289 -0.146429 15.0147 0.439358L24.5607 9.9853ZM1.5 11.046L1.5 9.54596L23.5 9.54596V11.046V12.546L1.5 12.546L1.5 11.046Z" fill="white"/>
</svg>
