<svg width="25" height="23" viewBox="0 0 25 23" fill="none" xmlns="http://www.w3.org/2000/svg">
<path d="M23.5 12.546C24.3284 12.546 25 11.8744 25 11.046C25 10.2175 24.3284 9.54596 23.5 9.54596V11.046V12.546ZM0.43934 9.9853C-0.146447 10.5711 -0.146447 11.5208 0.43934 12.1066L9.98528 21.6526C10.5711 22.2383 11.5208 22.2383 12.1066 21.6526C12.6924 21.0668 12.6924 20.117 12.1066 19.5312L3.62132 11.046L12.1066 2.56068C12.6924 1.97489 12.6924 1.02514 12.1066 0.439358C11.5208 -0.146429 10.5711 -0.146429 9.98528 0.439358L0.43934 9.9853ZM23.5 11.046V9.54596L1.5 9.54596V11.046V12.546L23.5 12.546V11.046Z" fill="white"/>
</svg>
