<svg width="38" height="14" viewBox="0 0 38 14" fill="none" xmlns="http://www.w3.org/2000/svg">
<path d="M0 14H38V-9.53674e-07H5.08601e-05L5.79102 7L0 14Z" fill="#085B64"/>
<path d="M13.0645 6V5.21777L15.3203 2.43164H13.3193V1.70508H16.4629V2.37891L14.1104 5.27637H16.5537V6H13.0645ZM19.1465 6V5.53418C19.0332 5.7002 18.8838 5.83105 18.6982 5.92676C18.5146 6.02246 18.3203 6.07031 18.1152 6.07031C17.9062 6.07031 17.7188 6.02441 17.5527 5.93262C17.3867 5.84082 17.2666 5.71191 17.1924 5.5459C17.1182 5.37988 17.0811 5.15039 17.0811 4.85742V2.88867H17.9043V4.31836C17.9043 4.75586 17.9189 5.02441 17.9482 5.12402C17.9795 5.22168 18.0352 5.2998 18.1152 5.3584C18.1953 5.41504 18.2969 5.44336 18.4199 5.44336C18.5605 5.44336 18.6865 5.40527 18.7979 5.3291C18.9092 5.25098 18.9854 5.15527 19.0264 5.04199C19.0674 4.92676 19.0879 4.64648 19.0879 4.20117V2.88867H19.9111V6H19.1465ZM20.7666 2.4668V1.70508H21.5898V2.4668H20.7666ZM20.7666 6V2.88867H21.5898V6H20.7666ZM25.29 6H24.5254V5.54297C24.3984 5.7207 24.248 5.85352 24.0742 5.94141C23.9023 6.02734 23.7285 6.07031 23.5527 6.07031C23.1953 6.07031 22.8887 5.92676 22.6328 5.63965C22.3789 5.35059 22.252 4.94824 22.252 4.43262C22.252 3.90527 22.376 3.50488 22.624 3.23145C22.8721 2.95605 23.1855 2.81836 23.5645 2.81836C23.9121 2.81836 24.2129 2.96289 24.4668 3.25195V1.70508H25.29V6ZM23.0928 4.37695C23.0928 4.70898 23.1387 4.94922 23.2305 5.09766C23.3633 5.3125 23.5488 5.41992 23.7871 5.41992C23.9766 5.41992 24.1377 5.33984 24.2705 5.17969C24.4033 5.01758 24.4697 4.77637 24.4697 4.45605C24.4697 4.09863 24.4053 3.8418 24.2764 3.68555C24.1475 3.52734 23.9824 3.44824 23.7812 3.44824C23.5859 3.44824 23.4219 3.52637 23.2891 3.68262C23.1582 3.83691 23.0928 4.06836 23.0928 4.37695Z" fill="white"/>
<path d="M13.2607 9.87891C13.2607 9.44141 13.3262 9.07422 13.457 8.77734C13.5547 8.55859 13.6875 8.3623 13.8555 8.18848C14.0254 8.01465 14.2109 7.88574 14.4121 7.80176C14.6797 7.68848 14.9883 7.63184 15.3379 7.63184C15.9707 7.63184 16.4766 7.82812 16.8555 8.2207C17.2363 8.61328 17.4268 9.15918 17.4268 9.8584C17.4268 10.5518 17.2383 11.0947 16.8613 11.4873C16.4844 11.8779 15.9805 12.0732 15.3496 12.0732C14.7109 12.0732 14.2031 11.8789 13.8262 11.4902C13.4492 11.0996 13.2607 10.5625 13.2607 9.87891ZM14.1543 9.84961C14.1543 10.3359 14.2666 10.7051 14.4912 10.957C14.7158 11.207 15.001 11.332 15.3467 11.332C15.6924 11.332 15.9756 11.208 16.1963 10.96C16.4189 10.71 16.5303 10.3359 16.5303 9.83789C16.5303 9.3457 16.4219 8.97852 16.2051 8.73633C15.9902 8.49414 15.7041 8.37305 15.3467 8.37305C14.9893 8.37305 14.7012 8.49609 14.4824 8.74219C14.2637 8.98633 14.1543 9.35547 14.1543 9.84961ZM17.9102 10.4004C17.9102 10.127 17.9775 9.8623 18.1123 9.60645C18.2471 9.35059 18.4375 9.15527 18.6836 9.02051C18.9316 8.88574 19.208 8.81836 19.5127 8.81836C19.9834 8.81836 20.3691 8.97168 20.6699 9.27832C20.9707 9.58301 21.1211 9.96875 21.1211 10.4355C21.1211 10.9062 20.9688 11.2969 20.6641 11.6074C20.3613 11.916 19.9795 12.0703 19.5186 12.0703C19.2334 12.0703 18.9609 12.0059 18.7012 11.877C18.4434 11.748 18.2471 11.5596 18.1123 11.3115C17.9775 11.0615 17.9102 10.7578 17.9102 10.4004ZM18.7539 10.4443C18.7539 10.7529 18.8271 10.9893 18.9736 11.1533C19.1201 11.3174 19.3008 11.3994 19.5156 11.3994C19.7305 11.3994 19.9102 11.3174 20.0547 11.1533C20.2012 10.9893 20.2744 10.751 20.2744 10.4385C20.2744 10.1338 20.2012 9.89941 20.0547 9.73535C19.9102 9.57129 19.7305 9.48926 19.5156 9.48926C19.3008 9.48926 19.1201 9.57129 18.9736 9.73535C18.8271 9.89941 18.7539 10.1357 18.7539 10.4443ZM21.4785 11.1123L22.3047 10.9863C22.3398 11.1465 22.4111 11.2686 22.5186 11.3525C22.626 11.4346 22.7764 11.4756 22.9697 11.4756C23.1826 11.4756 23.3428 11.4365 23.4502 11.3584C23.5225 11.3037 23.5586 11.2305 23.5586 11.1387C23.5586 11.0762 23.5391 11.0244 23.5 10.9834C23.459 10.9443 23.3672 10.9082 23.2246 10.875C22.5605 10.7285 22.1396 10.5947 21.9619 10.4736C21.7158 10.3057 21.5928 10.0723 21.5928 9.77344C21.5928 9.50391 21.6992 9.27734 21.9121 9.09375C22.125 8.91016 22.4551 8.81836 22.9023 8.81836C23.3281 8.81836 23.6445 8.8877 23.8516 9.02637C24.0586 9.16504 24.2012 9.37012 24.2793 9.6416L23.5029 9.78516C23.4697 9.66406 23.4062 9.57129 23.3125 9.50684C23.2207 9.44238 23.0889 9.41016 22.917 9.41016C22.7002 9.41016 22.5449 9.44043 22.4512 9.50098C22.3887 9.54395 22.3574 9.59961 22.3574 9.66797C22.3574 9.72656 22.3848 9.77637 22.4395 9.81738C22.5137 9.87207 22.7695 9.94922 23.207 10.0488C23.6465 10.1484 23.9531 10.2705 24.127 10.415C24.2988 10.5615 24.3848 10.7656 24.3848 11.0273C24.3848 11.3125 24.2656 11.5576 24.0273 11.7627C23.7891 11.9678 23.4365 12.0703 22.9697 12.0703C22.5459 12.0703 22.21 11.9844 21.9619 11.8125C21.7158 11.6406 21.5547 11.4072 21.4785 11.1123ZM26.5352 8.88867V9.54492H25.9727V10.7988C25.9727 11.0527 25.9775 11.2012 25.9873 11.2441C25.999 11.2852 26.0234 11.3193 26.0605 11.3467C26.0996 11.374 26.1465 11.3877 26.2012 11.3877C26.2773 11.3877 26.3877 11.3613 26.5322 11.3086L26.6025 11.9473C26.4111 12.0293 26.1943 12.0703 25.9521 12.0703C25.8037 12.0703 25.6699 12.0459 25.5508 11.9971C25.4316 11.9463 25.3438 11.8818 25.2871 11.8037C25.2324 11.7236 25.1943 11.6162 25.1729 11.4814C25.1553 11.3857 25.1465 11.1924 25.1465 10.9014V9.54492H24.7686V8.88867H25.1465V8.27051L25.9727 7.79004V8.88867H26.5352Z" fill="white"/>
</svg>
